<?xml version="1.0" encoding="UTF-8"?>
<svg id="Layer_1" data-name="Layer 1" xmlns="http://www.w3.org/2000/svg" viewBox="0 0 1080 1080">
  <defs>
    <style>
      .cls-1, .cls-2 {
        stroke-width: 0px;
      }

      .cls-2 {
        fill: #fff;
      }
    </style>
  </defs>
  <rect class="cls-2" width="1080" height="1080"/>
  <g>
    <path class="cls-1" d="m276.29,508.83v6.24l18.73,18.73v37.56l-18.73,18.73h-56.29v-150.05h56.29l18.73,18.73v37.54h-6.24v6.24h-6.24v6.24l-6.25.04Zm-6.23-43.82h-24.97v25.01h24.97v-25.01Zm-12.49,62.53,6.24,6.24-12.49-12.48h-6.24v43.78h24.97v-25.05"/>
    <path class="cls-1" d="m343.01,465.01v50.03h-6.25v-6.25h-6.26v-6.25h-6.25v-6.26h-6.25v-31.26h25.02Zm-6.25,68.79h6.25v56.29h-25.02v-75.05h6.25v6.25h6.25v6.26h6.26v6.25Z"/>
    <path class="cls-1" d="m354.13,471.26v-6.25h25.02v-25.01h25.02v25.01h6.25v6.25h6.26v6.26h6.25v6.25h6.25v6.25h-25.02v75.04h6.25l18.76,18.76v6.26h-31.27v-6.26h-6.26v-6.25h-6.25v-6.25h-6.25v-81.3h-6.25v-6.25h-6.26v-6.25h-6.25"/>
    <path class="cls-1" d="m471.14,465.01v25.01h50.03v6.25l-12.5,12.51-6.26,6.25h-31.27v75.05h-25.02v-131.33h6.25v-6.26h6.25v-6.25h6.26v-6.25h56.29v25.01h-50.03Z"/>
    <path class="cls-1" d="m604.53,508.75v62.54l-18.73,18.73h-37.53l-18.73-18.73v-62.54l18.73-18.73h37.53l18.73,18.73Zm-24.97,6.3l-12.49-12.48-12.49,12.48v50.03l12.49,12.48,12.49-12.48v-50.03Z"/>
    <path class="cls-1" d="m677.16,490.03v6.25h-6.26v6.26h-6.25v6.25h-6.25v6.25h-6.26v75.05h-25.02v-100.06h6.26v6.25h6.25v6.26l12.5-12.51h25.02Z"/>
    <path class="cls-1" d="m762.37,490.03v131.25l-18.73,18.73h-37.53l-18.73-18.73v-6.24h25.02l12.49,12.48,12.49-12.48v-25.01h-31.27l-18.73-18.73v-62.54h6.24v-6.24h6.24v-6.24h6.24v-6.24h37.53l6.24,6.24h6.24v-6.24h6.25Zm-24.98,25.02l-12.49-12.48-12.49,12.48v50.03l12.49,12.48h6.24v-6.24h6.24v-56.27Z"/>
    <path class="cls-1" d="m816.22,533.8l18.77-18.76-12.51-12.5-12.5,12.5v50.03l12.5,12.51,12.51-12.51h6.25v-6.25h6.25v-6.25h6.25v-6.25h6.26v25.01l-18.76,18.76h-37.53l-18.77-18.76v-62.54l18.77-18.76h37.53l18.76,18.76v12.5l-18.76,18.76h-25.02v-6.25Z"/>
  </g>
</svg>